<svg width="137" height="28" viewBox="0 0 137 28" fill="none" xmlns="http://www.w3.org/2000/svg">
<g clip-path="url(#clip0_9575_4562)">
<path d="M7.06291 22.2861C6.72791 22.2861 6.30891 22.2861 5.86291 22.2581C5.41691 22.2301 4.94191 22.2021 4.46291 22.1461C3.98391 22.0901 3.51391 22.0061 3.01191 21.9231C2.55481 21.8316 2.10648 21.7008 1.67191 21.5321C1.18481 21.399 0.756029 21.1072 0.453523 20.7029C0.151018 20.2986 -0.00791358 19.8049 0.00191367 19.3001V4.95407C-0.00777137 4.77155 0.0193764 4.58896 0.08174 4.41716C0.144104 4.24536 0.240407 4.08787 0.364914 3.95407C0.646404 3.69961 0.979732 3.50924 1.34191 3.39607C2.24974 3.1113 3.18538 2.92424 4.13291 2.83807C5.10991 2.75407 6.00291 2.69807 6.75591 2.69807C8.22869 2.66924 9.69716 2.86688 11.1099 3.28407C12.34 3.63587 13.4814 4.2446 14.4589 5.07007C15.4109 5.90134 16.1562 6.94283 16.6359 8.11207C17.1763 9.49826 17.4327 10.9789 17.3899 12.4661C17.4212 13.916 17.1649 15.3577 16.6359 16.7081C16.1877 17.8809 15.4709 18.9323 14.5429 19.7781C13.5989 20.6187 12.4855 21.2468 11.2779 21.6201C9.91954 22.0741 8.49512 22.2992 7.06291 22.2861ZM5.33291 17.8201C5.60867 17.8785 5.88848 17.916 6.16991 17.9321C6.50491 17.9601 6.81191 17.9881 7.09091 17.9881C7.74581 17.9976 8.39742 17.8937 9.01691 17.6811C9.58322 17.48 10.0979 17.1559 10.5239 16.7321C10.9697 16.253 11.3034 15.6809 11.5009 15.0571C11.7507 14.2536 11.8639 13.414 11.8359 12.5731C11.9494 11.0745 11.4906 9.58869 10.5519 8.41507C10.112 7.95125 9.57824 7.58649 8.98629 7.34509C8.39434 7.10369 7.75775 6.99118 7.11891 7.01507C6.83991 7.01507 6.53291 7.01507 6.25391 7.04307C5.97491 7.07107 5.66791 7.09907 5.36091 7.12707L5.33291 17.8201Z" fill="white"/>
<path d="M18.5095 2.74962C18.5027 2.38847 18.5678 2.02957 18.7012 1.69389C18.8346 1.35822 19.0336 1.0525 19.2865 0.794616C19.8526 0.282557 20.5887 -0.000976562 21.352 -0.000976562C22.1154 -0.000976563 22.8515 0.282557 23.4175 0.794616C23.6712 1.05217 23.8709 1.35774 24.005 1.69343C24.1391 2.02912 24.2049 2.38819 24.1985 2.74962C24.2048 3.11088 24.1389 3.46976 24.0048 3.80526C23.8707 4.14077 23.6711 4.44618 23.4175 4.70362C22.8515 5.21567 22.1154 5.49921 21.352 5.49921C20.5887 5.49921 19.8526 5.21567 19.2865 4.70362C19.0285 4.44968 18.8262 4.14481 18.6924 3.8084C18.5586 3.47199 18.4963 3.11141 18.5095 2.74962ZM23.9515 21.7556C23.7285 21.8116 23.3935 21.8396 22.9515 21.9226C22.5093 22.0015 22.0607 22.039 21.6115 22.0346C21.21 22.0354 20.809 22.0073 20.4115 21.9506C20.081 21.9012 19.766 21.777 19.4905 21.5876C19.2365 21.3946 19.0429 21.133 18.9325 20.8336C18.7827 20.4422 18.7146 20.0243 18.7325 19.6056V7.10262C19.0626 7.02857 19.3964 6.97282 19.7325 6.93562C20.1748 6.85677 20.6234 6.81927 21.0725 6.82362C21.474 6.82283 21.8751 6.85091 22.2725 6.90762C22.5958 6.95222 22.9028 7.07701 23.1655 7.27062C23.4196 7.46368 23.6132 7.72527 23.7235 8.02462C23.8756 8.42515 23.9436 8.85267 23.9235 9.28062L23.9515 21.7556Z" fill="white"/>
<path d="M33.6872 6.43261C34.7638 6.42835 35.8355 6.57889 36.8692 6.87961C37.7257 7.12903 38.5362 7.51535 39.2692 8.02361C39.6474 8.28092 39.978 8.60204 40.2462 8.97261C40.4924 9.37559 40.6183 9.84049 40.6092 10.3126V21.0576C40.6323 22.0238 40.4217 22.9813 39.9952 23.8486C39.6025 24.6254 39.0279 25.2958 38.3202 25.8026C37.5699 26.3338 36.7277 26.7217 35.8362 26.9466C34.8427 27.2027 33.8213 27.335 32.7952 27.3406C31.2973 27.4083 29.8024 27.1511 28.4132 26.5866C27.9304 26.3948 27.5185 26.0588 27.2338 25.6242C26.949 25.1897 26.8053 24.6779 26.8222 24.1586C26.8098 23.7685 26.8893 23.3809 27.0541 23.0271C27.2189 22.6732 27.4646 22.3631 27.7712 22.1216C28.4102 22.4692 29.0835 22.7497 29.7802 22.9586C30.5321 23.181 31.3121 23.2938 32.0962 23.2936C33.0039 23.335 33.907 23.1429 34.7192 22.7356C35.035 22.5598 35.2957 22.2996 35.4723 21.9843C35.6488 21.6689 35.7343 21.3107 35.7192 20.9496V20.4756C34.7448 20.8696 33.7 21.0596 32.6492 21.0336C31.7581 21.0352 30.8725 20.8938 30.0262 20.6146C29.2117 20.3593 28.4668 19.9199 27.8492 19.3306C27.1856 18.6979 26.6709 17.9256 26.3422 17.0696C25.9453 16.0183 25.7558 14.9 25.7842 13.7766C25.754 12.6687 25.9535 11.5666 26.3702 10.5396C26.7353 9.65977 27.299 8.87634 28.0172 8.25061C28.7477 7.62739 29.6048 7.17019 30.5292 6.91061C31.547 6.57247 32.615 6.4108 33.6872 6.43261ZM35.6132 10.8706C35.4115 10.7584 35.1956 10.674 34.9712 10.6196C34.6354 10.5258 34.2864 10.488 33.9382 10.5076C33.5236 10.4755 33.1069 10.5333 32.7167 10.677C32.3265 10.8208 31.9719 11.0472 31.6772 11.3406C31.1359 12.0189 30.8671 12.8746 30.9232 13.7406C30.842 14.661 31.1113 15.5782 31.6772 16.3086C31.9238 16.5689 32.2233 16.7733 32.5555 16.908C32.8878 17.0427 33.245 17.1047 33.6032 17.0896C34.3117 17.1283 35.0118 16.9213 35.5852 16.5036L35.6132 10.8706Z" fill="white"/>
<path d="M42.2895 2.74959C42.2832 2.38833 42.3491 2.02945 42.4832 1.69394C42.6173 1.35844 42.817 1.05303 43.0705 0.795592C43.6366 0.283534 44.3726 0 45.136 0C45.8993 0 46.6354 0.283534 47.2015 0.795592C47.7025 1.32284 47.982 2.02226 47.9825 2.74959C47.9887 3.11085 47.9228 3.46973 47.7887 3.80524C47.6546 4.14075 47.455 4.44615 47.2015 4.70359C46.6354 5.21565 45.8993 5.49918 45.136 5.49918C44.3726 5.49918 43.6366 5.21565 43.0705 4.70359C42.5695 4.17635 42.2899 3.47692 42.2895 2.74959ZM47.7595 21.7556C47.5365 21.8116 47.2015 21.8396 46.7595 21.9226C46.3172 22.0014 45.8686 22.0389 45.4195 22.0346C45.018 22.0354 44.6169 22.0073 44.2195 21.9506C43.8962 21.906 43.5892 21.7812 43.3265 21.5876C43.0725 21.3945 42.8789 21.1329 42.7685 20.8336C42.6186 20.4422 42.5506 20.0243 42.5685 19.6056V7.10259C42.8985 7.02855 43.2323 6.9728 43.5685 6.93559C44.0107 6.85674 44.4593 6.81925 44.9085 6.82359C45.31 6.82281 45.711 6.85088 46.1085 6.90759C46.4318 6.9522 46.7387 7.07699 47.0015 7.27059C47.2555 7.46365 47.4491 7.72524 47.5595 8.02459C47.7115 8.42513 47.7796 8.85264 47.7595 9.28059V21.7556Z" fill="white"/>
<path d="M54.8754 16.676C54.8501 16.8939 54.8831 17.1146 54.9709 17.3155C55.0587 17.5165 55.1983 17.6906 55.3754 17.82C55.8071 18.0677 56.3016 18.1841 56.7984 18.155C57.1166 18.1548 57.4341 18.1267 57.7474 18.071C58.0264 18.015 58.3334 17.959 58.6124 17.871C58.8023 18.1008 58.9617 18.3542 59.0864 18.625C59.2371 18.9359 59.306 19.2801 59.2864 19.625C59.295 19.9865 59.2217 20.3452 59.0719 20.6743C58.9221 21.0033 58.6997 21.2942 58.4214 21.525C57.5086 22.1049 56.4272 22.3606 55.3514 22.251C53.8639 22.345 52.3911 21.91 51.1934 21.023C50.6685 20.5086 50.2656 19.883 50.0145 19.1923C49.7634 18.5016 49.6704 17.7634 49.7424 17.032V3.89501C50.0638 3.80919 50.3901 3.74241 50.7194 3.69501C51.1616 3.61616 51.6102 3.57866 52.0594 3.58301C52.7876 3.54314 53.5124 3.7073 54.1524 4.05701C54.655 4.36434 54.9064 5.03401 54.9064 6.06601V8.02001H58.9254C59.0654 8.29901 59.1764 8.57801 59.2884 8.85701C59.4003 9.21839 59.4566 9.59469 59.4554 9.97301C59.5071 10.5273 59.3366 11.0794 58.9814 11.508C58.8126 11.6728 58.6111 11.8001 58.3899 11.8818C58.1686 11.9635 57.9327 11.9976 57.6974 11.982H54.9064L54.8754 16.676Z" fill="white"/>
<path d="M67.5182 6.43262C68.5321 6.43215 69.543 6.54451 70.5322 6.76762C71.3611 6.96672 72.1462 7.3169 72.8482 7.80062C73.4846 8.24916 73.9941 8.8548 74.3272 9.55862C74.6969 10.3433 74.8784 11.2034 74.8572 12.0706V18.9086C74.8808 19.3869 74.7209 19.8562 74.4102 20.2206C74.1027 20.5614 73.7449 20.8531 73.3492 21.0856C71.6202 21.9803 69.6828 22.3947 67.7392 22.2856C66.754 22.2954 65.7709 22.1924 64.8092 21.9786C64.0156 21.8082 63.2592 21.4962 62.5762 21.0576C61.97 20.6655 61.4712 20.1282 61.1252 19.4946C60.7681 18.8169 60.5859 18.0606 60.5952 17.2946C60.5549 16.696 60.6466 16.0959 60.8636 15.5366C61.0806 14.9773 61.4177 14.4724 61.8512 14.0576C62.9744 13.1895 64.3398 12.6922 65.7582 12.6346L69.7772 12.2156V11.9926C69.7933 11.7245 69.7272 11.4579 69.5876 11.2284C69.448 10.9989 69.2417 10.8176 68.9962 10.7086C68.2801 10.4147 67.5083 10.2813 66.7352 10.3176C65.9745 10.3168 65.2161 10.4009 64.4742 10.5686C63.7976 10.718 63.1347 10.9234 62.4922 11.1826C62.195 10.9717 61.9629 10.6818 61.8222 10.3456C61.635 9.98354 61.5392 9.58119 61.5432 9.17362C61.5212 8.71329 61.6594 8.25957 61.9342 7.88962C62.2557 7.5315 62.6573 7.25433 63.1062 7.08062C63.7817 6.83223 64.4843 6.66441 65.1992 6.58062C65.969 6.49034 66.7431 6.44094 67.5182 6.43262ZM67.7692 18.4616C68.1535 18.4672 68.5372 18.4296 68.9132 18.3496C69.2433 18.3125 69.5644 18.2181 69.8622 18.0706V15.6146L67.6622 15.8146C67.1678 15.836 66.6833 15.9596 66.2392 16.1776C66.067 16.2606 65.9226 16.3918 65.8235 16.5553C65.7244 16.7188 65.675 16.9076 65.6812 17.0986C65.6806 17.2901 65.7229 17.4793 65.8049 17.6523C65.8869 17.8253 66.0066 17.9778 66.1552 18.0986C66.6425 18.3888 67.2096 18.516 67.7742 18.4616H67.7692Z" fill="white"/>
<path d="M81.9751 21.7548C81.7521 21.8108 81.4171 21.8388 80.9751 21.9218C80.5328 22.0007 80.0842 22.0382 79.6351 22.0338C79.2336 22.0346 78.8325 22.0066 78.4351 21.9498C78.1118 21.9052 77.8048 21.7804 77.542 21.5868C77.288 21.3938 77.0945 21.1322 76.9841 20.8328C76.8342 20.4415 76.7661 20.0235 76.7841 19.6048V1.79985C77.0071 1.77185 77.3421 1.68785 77.7841 1.63285C78.2263 1.554 78.6749 1.5165 79.124 1.52085C79.5255 1.52006 79.9266 1.54814 80.3241 1.60485C80.6445 1.65964 80.9493 1.7835 81.2171 1.96785C81.4711 2.16091 81.6647 2.4225 81.775 2.72185C81.9271 3.12238 81.9952 3.5499 81.9751 3.97785V21.7548Z" fill="white"/>
<path d="M84.2322 7.49442C83.8445 6.84493 83.6419 6.10179 83.6462 5.34542C83.6126 5.04083 83.6424 4.7326 83.7336 4.44006C83.8248 4.14752 83.9755 3.87698 84.1762 3.64542C84.3627 3.46866 84.5826 3.33078 84.8229 3.23979C85.0633 3.1488 85.3193 3.10652 85.5762 3.11542H98.9452C99.3328 3.76491 99.5355 4.50805 99.5312 5.26442C99.5622 5.57353 99.5313 5.88573 99.4403 6.18277C99.3493 6.47981 99.2 6.75573 99.0012 6.99442C98.8146 7.17118 98.5947 7.30906 98.3544 7.40005C98.114 7.49104 97.858 7.53332 97.6012 7.52442H94.2012V21.7004C93.8662 21.7844 93.5012 21.8404 93.1402 21.9004C92.6679 21.9562 92.1927 21.9842 91.7172 21.9844C91.2958 21.9887 90.8751 21.9512 90.4612 21.8724C90.1357 21.8181 89.8289 21.6837 89.5682 21.4814C89.3142 21.2884 89.1205 21.0268 89.0102 20.7274C88.8757 20.3128 88.8082 19.8793 88.8102 19.4434V7.49442H84.2322Z" fill="white"/>
<path d="M120.269 21.7548C120.046 21.8108 119.711 21.8388 119.269 21.9218C118.826 22.0007 118.378 22.0382 117.929 22.0338C117.527 22.0346 117.126 22.0066 116.729 21.9498C116.398 21.9004 116.083 21.7762 115.808 21.5868C115.554 21.3938 115.36 21.1322 115.25 20.8328C115.1 20.4415 115.032 20.0235 115.05 19.6048V1.79985C115.273 1.77185 115.608 1.68785 116.05 1.63285C116.492 1.554 116.941 1.5165 117.39 1.52085C117.791 1.52007 118.192 1.54814 118.59 1.60485C118.913 1.64945 119.22 1.77424 119.483 1.96785C119.737 2.16091 119.93 2.4225 120.041 2.72185C120.193 3.12238 120.261 3.5499 120.241 3.97785L120.269 21.7548Z" fill="white"/>
<path d="M136.706 19.076C136.654 19.8768 136.363 20.6436 135.869 21.276C135.61 21.5442 135.297 21.7531 134.95 21.8879C134.603 22.0228 134.231 22.0805 133.86 22.057C133.242 22.0552 132.636 21.8918 132.102 21.583C131.46 21.1462 130.902 20.5978 130.455 19.964L127.413 16.164V21.746C127.19 21.802 126.855 21.83 126.413 21.913C125.97 21.9918 125.522 22.0293 125.073 22.025C124.671 22.0257 124.27 21.9977 123.873 21.941C123.549 21.8964 123.242 21.7716 122.98 21.578C122.726 21.3849 122.532 21.1233 122.422 20.824C122.272 20.4326 122.204 20.0147 122.222 19.596V1.82796C122.55 1.74007 122.884 1.67327 123.222 1.62796C123.664 1.54911 124.112 1.51162 124.562 1.51596C124.963 1.51518 125.364 1.54326 125.762 1.59996C126.085 1.64457 126.392 1.76936 126.655 1.96296C126.909 2.15602 127.102 2.41762 127.213 2.71696C127.362 3.10833 127.431 3.52626 127.413 3.94496V12.039L132.688 6.67996C133.597 6.62576 134.499 6.87169 135.256 7.37996C135.556 7.57081 135.803 7.83474 135.974 8.14707C136.145 8.4594 136.234 8.80996 136.233 9.16596C136.227 9.45029 136.18 9.73226 136.093 10.003C135.979 10.2876 135.818 10.5515 135.619 10.784C135.368 11.0902 135.088 11.3706 134.782 11.621C134.447 11.928 134.056 12.263 133.61 12.654L131.824 14.189L136.706 19.076Z" fill="white"/>
<path d="M112.789 11.0936C112.431 10.1455 111.868 9.28787 111.142 8.58165C110.41 7.88617 109.547 7.34508 108.602 6.99064C107.549 6.59827 106.432 6.40893 105.309 6.43265C104.187 6.42272 103.072 6.61164 102.016 6.99064C101.065 7.33439 100.2 7.87679 99.4756 8.58165C98.7488 9.28787 98.1865 10.1455 97.8286 11.0936C97.4383 12.1475 97.2399 13.2628 97.2426 14.3866C97.2148 15.5216 97.414 16.6507 97.8286 17.7076C98.0729 18.3117 98.3917 18.8828 98.7776 19.4076C98.2578 20.5048 97.3686 21.3841 96.2656 21.8916C96.2656 21.8916 99.5587 22.9796 101.373 21.5286C101.579 21.6384 101.794 21.7316 102.015 21.8076C103.07 22.1889 104.185 22.3779 105.308 22.3656C106.427 22.3714 107.54 22.1923 108.601 21.8356C109.551 21.5203 110.418 20.9954 111.137 20.2997C111.857 19.604 112.411 18.7554 112.759 17.8166C113.16 16.7367 113.359 15.5918 113.345 14.4396C113.394 13.2978 113.205 12.1581 112.789 11.0936ZM101.542 15.6146C101.321 15.6146 101.105 15.5492 100.922 15.4266C100.738 15.3039 100.595 15.1296 100.511 14.9257C100.426 14.7218 100.404 14.4974 100.447 14.2809C100.49 14.0644 100.596 13.8656 100.753 13.7095C100.909 13.5534 101.107 13.4472 101.324 13.4041C101.54 13.361 101.765 13.3831 101.969 13.4676C102.173 13.5521 102.347 13.6951 102.47 13.8786C102.592 14.0622 102.658 14.2779 102.658 14.4986C102.657 14.7943 102.539 15.0775 102.33 15.2866C102.121 15.4957 101.837 15.6136 101.542 15.6146ZM105.449 15.6146C105.228 15.6146 105.012 15.5492 104.829 15.4266C104.645 15.3039 104.502 15.1296 104.418 14.9257C104.333 14.7218 104.311 14.4974 104.354 14.2809C104.397 14.0644 104.503 13.8656 104.66 13.7095C104.816 13.5534 105.014 13.4472 105.231 13.4041C105.447 13.361 105.672 13.3831 105.876 13.4676C106.08 13.5521 106.254 13.6951 106.377 13.8786C106.499 14.0622 106.565 14.2779 106.565 14.4986C106.564 14.7943 106.446 15.0775 106.237 15.2866C106.028 15.4957 105.744 15.6136 105.449 15.6146ZM109.161 15.6146C108.94 15.6146 108.724 15.5492 108.541 15.4266C108.357 15.3039 108.214 15.1296 108.13 14.9257C108.045 14.7218 108.023 14.4974 108.066 14.2809C108.109 14.0644 108.215 13.8656 108.372 13.7095C108.528 13.5534 108.726 13.4472 108.943 13.4041C109.159 13.361 109.384 13.3831 109.588 13.4676C109.792 13.5521 109.966 13.6951 110.089 13.8786C110.211 14.0622 110.277 14.2779 110.277 14.4986C110.276 14.7943 110.158 15.0775 109.949 15.2866C109.74 15.4957 109.456 15.6136 109.161 15.6146Z" fill="#DE5D83"/>
</g>
<defs>
<clipPath id="clip0_9575_4562">
<rect width="136.703" height="27.337" fill="white"/>
</clipPath>
</defs>
</svg>
