<svg width="193" height="34" viewBox="0 0 193 34" fill="none" xmlns="http://www.w3.org/2000/svg">
<path d="M45.3855 33.4116L43.8849 33.4363L42.7062 31.8028L42.734 33.4549L41.5274 33.4766L41.4531 29.1792L43.3311 29.1451C43.591 29.1389 43.8169 29.173 44.0087 29.2379C44.2036 29.306 44.3645 29.3988 44.4913 29.5164C44.6182 29.6371 44.7141 29.7763 44.7822 29.9341C44.8471 30.0919 44.8843 30.262 44.8873 30.4446C44.8935 30.7725 44.8131 31.0386 44.646 31.2428C44.479 31.4501 44.2314 31.5924 43.9004 31.6697L45.3886 33.4054L45.3855 33.4116ZM42.6907 31.0819H42.9196C43.1579 31.0726 43.3404 31.0262 43.4642 30.9303C43.591 30.8375 43.6498 30.7045 43.6467 30.5343C43.6436 30.3641 43.5786 30.2342 43.4487 30.1445C43.3187 30.0547 43.1362 30.0145 42.898 30.0176H42.669L42.6876 31.0819H42.6907Z" fill="white"/>
<path d="M48.9765 32.69L47.2532 32.7209L46.9902 33.4727L45.7031 33.4944L47.3955 29.1661L48.7135 29.1444L50.5543 33.4109L49.2673 33.4325L48.9765 32.69ZM48.6423 31.8485L48.0761 30.4284L47.5595 31.867L48.6423 31.8485Z" fill="white"/>
<path d="M54.6274 30.5575C54.3428 30.2481 53.9962 30.0965 53.5848 30.1027C53.4053 30.1058 53.2382 30.1398 53.0835 30.2017C52.9319 30.2666 52.7989 30.3502 52.6906 30.4554C52.5823 30.5606 52.4957 30.6874 52.4369 30.8328C52.375 30.9782 52.3472 31.136 52.3503 31.3031C52.3503 31.4732 52.3874 31.631 52.4555 31.7734C52.5205 31.9157 52.6133 32.0394 52.7277 32.1446C52.8422 32.2498 52.9753 32.3303 53.1299 32.389C53.2816 32.4478 53.4486 32.4757 53.625 32.4726C54.0117 32.4664 54.3551 32.3086 54.6583 31.9992L54.68 33.3203L54.5562 33.3636C54.3737 33.4286 54.2004 33.475 54.0427 33.5059C53.8818 33.5369 53.724 33.5554 53.5693 33.5554C53.2506 33.5616 52.9412 33.509 52.6473 33.4038C52.3534 33.2986 52.0904 33.1439 51.8646 32.9459C51.6387 32.7448 51.4531 32.5097 51.3138 32.2312C51.1746 31.9559 51.1004 31.6496 51.0942 31.3185C51.088 30.9875 51.1499 30.6843 51.2767 30.4059C51.4067 30.1274 51.5799 29.8892 51.7996 29.685C52.0192 29.4808 52.276 29.3199 52.57 29.2054C52.8639 29.0879 53.1733 29.026 53.495 29.0198C53.6807 29.0167 53.8601 29.0322 54.0396 29.0631C54.219 29.0941 54.4077 29.1497 54.6057 29.2209L54.6305 30.5544L54.6274 30.5575Z" fill="white"/>
<path d="M56.8656 30.9355L58.3043 29.1379L59.7925 29.1132L57.9887 31.1799L60.04 33.4075L58.4776 33.4353L56.8749 31.6006L56.9059 33.4632L55.6993 33.4848L55.625 29.1874L56.8316 29.1658L56.8626 30.9385L56.8656 30.9355Z" fill="white"/>
<path d="M63.4077 30.0755L61.9721 30.1003L61.9845 30.818L63.3396 30.7933L63.3551 31.74L61.9999 31.7648L62.0123 32.5042L63.4479 32.4795L63.4633 33.4262L60.8243 33.4726L60.75 29.1752L63.3891 29.1288L63.4046 30.0755H63.4077Z" fill="white"/>
<path d="M66.2746 30.091L66.3334 33.4417L65.1268 33.4633L65.068 30.1126L64.078 30.1312L64.0625 29.1845L67.2523 29.1288L67.2678 30.0755L66.2777 30.0941L66.2746 30.091Z" fill="white"/>
<path d="M71.6715 33.4547L70.4649 33.4764L70.3906 29.179L72.3119 29.1449C72.8317 29.1356 73.2339 29.2532 73.5155 29.5007C73.797 29.7482 73.9424 30.0978 73.9486 30.5526C73.9579 31.0074 73.8248 31.3632 73.5526 31.62C73.2803 31.8768 72.8843 32.0068 72.3614 32.016L71.6467 32.0284L71.6715 33.4547ZM71.6313 31.1281L72.0304 31.1219C72.4728 31.1126 72.6925 30.9332 72.6863 30.5743C72.6801 30.2185 72.4542 30.0421 72.0118 30.0514L71.6127 30.0576L71.6313 31.1281Z" fill="white"/>
<path d="M78.7448 33.4116L77.2443 33.4363L76.0655 31.8028L76.0934 33.4549L74.8868 33.4766L74.8125 29.1792L76.6905 29.1451C76.9504 29.1389 77.1762 29.173 77.3681 29.2379C77.563 29.306 77.7239 29.3988 77.8507 29.5164C77.9776 29.6371 78.0735 29.7763 78.1415 29.9341C78.2065 30.0919 78.2436 30.262 78.2467 30.4446C78.2529 30.7725 78.1725 31.0386 78.0054 31.2428C77.8383 31.4501 77.5908 31.5924 77.2598 31.6697L78.7479 33.4054L78.7448 33.4116ZM76.0501 31.0819H76.279C76.5172 31.0726 76.6998 31.0262 76.8235 30.9303C76.9504 30.8375 77.0092 30.7045 77.0061 30.5343C77.003 30.3641 76.938 30.2342 76.8081 30.1445C76.6781 30.0547 76.4956 30.0145 76.2574 30.0176H76.0284L76.047 31.0819H76.0501Z" fill="white"/>
<path d="M79.2504 31.3467C79.2443 31.028 79.303 30.7279 79.4268 30.4525C79.5506 30.1741 79.7207 29.9327 79.9435 29.7224C80.1662 29.512 80.4323 29.348 80.7448 29.2273C81.0573 29.1067 81.4007 29.0417 81.7782 29.0355C82.1525 29.0293 82.4959 29.0819 82.8146 29.1902C83.1333 29.3016 83.4086 29.4563 83.6376 29.6574C83.8696 29.8585 84.0491 30.0967 84.1821 30.369C84.3151 30.6412 84.3832 30.9383 84.3894 31.2569C84.3956 31.5756 84.3368 31.8757 84.213 32.1511C84.0893 32.4295 83.916 32.6708 83.6933 32.8812C83.4705 33.0916 83.2013 33.2556 82.8858 33.3762C82.5702 33.4969 82.2268 33.5619 81.8555 33.5681C81.478 33.5742 81.1315 33.5216 80.816 33.4134C80.5004 33.302 80.2281 33.1473 79.9992 32.9462C79.7702 32.7451 79.5877 32.5069 79.4577 32.2346C79.3247 31.9623 79.2566 31.6653 79.2504 31.3467ZM80.5128 31.325C80.5128 31.4952 80.553 31.6529 80.6241 31.7953C80.6953 31.9376 80.7943 32.0613 80.915 32.1665C81.0356 32.2717 81.1748 32.3522 81.3357 32.4079C81.4935 32.4635 81.6637 32.4914 81.84 32.4883C82.0164 32.4852 82.1835 32.4543 82.3412 32.3924C82.499 32.3305 82.6352 32.247 82.7558 32.1356C82.8734 32.0273 82.9693 31.9005 83.0343 31.755C83.0992 31.6096 83.1333 31.4518 83.1302 31.2817C83.1271 31.1115 83.09 30.9537 83.0188 30.8114C82.9477 30.6691 82.8486 30.5453 82.7249 30.4401C82.6011 30.3349 82.4619 30.2545 82.301 30.1988C82.1401 30.1431 81.9731 30.1153 81.7967 30.1184C81.6204 30.1215 81.4533 30.1524 81.2955 30.2143C81.1377 30.2762 81.0016 30.3597 80.884 30.4711C80.7664 30.5794 80.6736 30.7062 80.6087 30.8516C80.5406 30.997 80.5097 31.1548 80.5128 31.3281V31.325Z" fill="white"/>
<path d="M88.0512 30.0755L86.5971 30.1003L86.6095 30.8181L87.9337 30.7964L87.9491 31.7431L86.6249 31.7648L86.6559 33.4509L85.4493 33.4726L85.375 29.1752L88.0327 29.1288L88.0481 30.0755H88.0512Z" fill="white"/>
<path d="M91.6733 30.0755L90.2377 30.1003L90.2501 30.818L91.6052 30.7933L91.6207 31.74L90.2656 31.7648L90.2779 32.5042L91.7135 32.4795L91.729 33.4262L89.0899 33.4726L89.0156 29.1752L91.6547 29.1288L91.6702 30.0755H91.6733Z" fill="white"/>
<path d="M95.3353 30.2325C95.2022 30.1366 95.0692 30.0654 94.9361 30.019C94.8031 29.9726 94.6763 29.9509 94.5525 29.954C94.3978 29.954 94.271 29.9942 94.1719 30.0623C94.076 30.1335 94.0265 30.2232 94.0296 30.3315C94.0296 30.4088 94.0575 30.4707 94.107 30.5171C94.1565 30.5635 94.2215 30.6068 94.3019 30.6409C94.3823 30.6749 94.4721 30.7058 94.5742 30.7306C94.6763 30.7553 94.7753 30.7832 94.8743 30.811C95.2703 30.9255 95.5611 31.0833 95.7467 31.2844C95.9324 31.4855 96.0283 31.7485 96.0345 32.0733C96.0376 32.293 96.0004 32.4941 95.9262 32.6735C95.8488 32.853 95.7344 33.0077 95.5828 33.1376C95.4312 33.2676 95.2455 33.3697 95.0228 33.4439C94.8 33.5182 94.5463 33.5584 94.2648 33.5615C93.6769 33.5708 93.1324 33.4192 92.625 33.1067L93.1262 32.1971C93.3088 32.3425 93.4882 32.4477 93.6676 32.5188C93.844 32.5869 94.0203 32.6209 94.1936 32.6179C94.3916 32.6148 94.537 32.5714 94.6298 32.4848C94.7258 32.3982 94.7722 32.3023 94.7691 32.1971C94.7691 32.1321 94.7536 32.0764 94.7289 32.03C94.7041 31.9836 94.6608 31.9403 94.6051 31.9001C94.5463 31.8598 94.4721 31.8258 94.3792 31.7918C94.2864 31.7577 94.175 31.7237 94.042 31.6835C93.8842 31.6402 93.7326 31.5938 93.581 31.5412C93.4294 31.4886 93.2964 31.4174 93.1757 31.3277C93.0581 31.238 92.9622 31.1266 92.888 30.9874C92.8137 30.8512 92.7735 30.6749 92.7704 30.4614C92.7673 30.2479 92.8014 30.0561 92.8756 29.8798C92.9499 29.7034 93.052 29.5549 93.1881 29.4312C93.3242 29.3043 93.4913 29.2053 93.6893 29.1341C93.8873 29.063 94.1101 29.0228 94.3545 29.0197C94.5834 29.0166 94.8248 29.0413 95.0754 29.097C95.326 29.1527 95.5673 29.2331 95.7993 29.3445L95.3353 30.2263V30.2325Z" fill="white"/>
<path d="M99.5853 30.2325C99.4522 30.1366 99.3192 30.0654 99.1861 30.019C99.0531 29.9726 98.9263 29.9509 98.8025 29.954C98.6478 29.954 98.521 29.9942 98.4219 30.0623C98.326 30.1335 98.2765 30.2232 98.2796 30.3315C98.2796 30.4088 98.3075 30.4707 98.357 30.5171C98.4065 30.5635 98.4715 30.6068 98.5519 30.6409C98.6323 30.6749 98.7221 30.7058 98.8241 30.7306C98.9262 30.7553 99.0253 30.7832 99.1243 30.811C99.5203 30.9255 99.8111 31.0833 99.9967 31.2844C100.182 31.4855 100.278 31.7485 100.284 32.0733C100.288 32.293 100.25 32.4941 100.176 32.6735C100.099 32.853 99.9844 33.0077 99.8328 33.1376C99.6812 33.2676 99.4955 33.3697 99.2728 33.4439C99.05 33.5182 98.7963 33.5584 98.5148 33.5615C97.9269 33.5708 97.3824 33.4192 96.875 33.1067L97.3762 32.1971C97.5587 32.3425 97.7382 32.4477 97.9176 32.5188C98.094 32.5869 98.2703 32.6209 98.4436 32.6179C98.6416 32.6148 98.787 32.5714 98.8798 32.4848C98.9758 32.3982 99.0222 32.3023 99.0191 32.1971C99.0191 32.1321 99.0036 32.0764 98.9788 32.03C98.9541 31.9836 98.9108 31.9403 98.8551 31.9001C98.7963 31.8598 98.7221 31.8258 98.6292 31.7918C98.5364 31.7577 98.425 31.7237 98.292 31.6835C98.1342 31.6402 97.9826 31.5938 97.831 31.5412C97.6794 31.4886 97.5464 31.4174 97.4257 31.3277C97.3081 31.238 97.2122 31.1266 97.138 30.9874C97.0637 30.8512 97.0235 30.6749 97.0204 30.4614C97.0173 30.2479 97.0514 30.0561 97.1256 29.8798C97.1999 29.7034 97.302 29.5549 97.4381 29.4312C97.5742 29.3043 97.7413 29.2053 97.9393 29.1341C98.1373 29.063 98.3601 29.0228 98.6045 29.0197C98.8334 29.0166 99.0748 29.0413 99.3254 29.097C99.576 29.1527 99.8173 29.2331 100.049 29.3445L99.5853 30.2263V30.2325Z" fill="white"/>
<path d="M102.457 29.1444L102.531 33.4418L101.324 33.4635L101.25 29.1661L102.457 29.1444Z" fill="white"/>
<path d="M103.5 31.3467C103.494 31.028 103.553 30.7279 103.677 30.4525C103.801 30.1741 103.971 29.9327 104.193 29.7224C104.416 29.512 104.682 29.348 104.995 29.2273C105.307 29.1067 105.651 29.0417 106.028 29.0355C106.403 29.0293 106.746 29.0819 107.065 29.1902C107.383 29.3016 107.659 29.4563 107.888 29.6574C108.12 29.8585 108.299 30.0967 108.432 30.369C108.565 30.6412 108.633 30.9383 108.639 31.2569C108.646 31.5756 108.587 31.8757 108.463 32.1511C108.339 32.4295 108.166 32.6708 107.943 32.8812C107.721 33.0916 107.451 33.2556 107.136 33.3762C106.82 33.4969 106.477 33.5619 106.106 33.5681C105.728 33.5742 105.382 33.5216 105.066 33.4134C104.75 33.302 104.478 33.1473 104.249 32.9462C104.02 32.7451 103.838 32.5069 103.708 32.2346C103.575 31.9623 103.507 31.6653 103.5 31.3467ZM104.763 31.325C104.763 31.4952 104.803 31.6529 104.874 31.7953C104.945 31.9376 105.044 32.0613 105.165 32.1665C105.286 32.2717 105.425 32.3522 105.586 32.4079C105.744 32.4635 105.914 32.4914 106.09 32.4883C106.266 32.4852 106.433 32.4543 106.591 32.3924C106.749 32.3305 106.885 32.247 107.006 32.1356C107.123 32.0273 107.219 31.9005 107.284 31.755C107.349 31.6096 107.383 31.4518 107.38 31.2817C107.377 31.1115 107.34 30.9537 107.269 30.8114C107.198 30.6691 107.099 30.5453 106.975 30.4401C106.851 30.3349 106.712 30.2545 106.551 30.1988C106.39 30.1431 106.223 30.1153 106.047 30.1184C105.87 30.1215 105.703 30.1524 105.546 30.2143C105.388 30.2762 105.252 30.3597 105.134 30.4711C105.016 30.5794 104.924 30.7062 104.859 30.8516C104.791 30.997 104.76 31.1548 104.763 31.3281V31.325Z" fill="white"/>
<path d="M109.699 33.491L109.625 29.1936L110.832 29.1719L113.106 31.7615L113.059 29.1348L114.26 29.1132L114.334 33.4106L113.133 33.4322L110.859 30.8426L110.906 33.4693L109.699 33.491Z" fill="white"/>
<path d="M118.383 32.69L116.659 32.7209L116.396 33.4727L115.109 33.4944L116.802 29.1661L118.12 29.1444L119.961 33.4109L118.674 33.4325L118.383 32.69ZM118.049 31.8485L117.482 30.4284L116.966 31.867L118.049 31.8485Z" fill="white"/>
<path d="M121.875 29.1444L121.934 32.4951L123.382 32.4703L123.398 33.4171L120.746 33.4635L120.672 29.1661L121.878 29.1444H121.875Z" fill="white"/>
<path d="M139.422 31.3467C139.416 31.028 139.475 30.7279 139.599 30.4525C139.719 30.1741 139.893 29.9327 140.115 29.7224C140.338 29.512 140.604 29.348 140.917 29.2273C141.229 29.1067 141.573 29.0417 141.95 29.0355C142.324 29.0293 142.668 29.0819 142.986 29.1902C143.305 29.3016 143.581 29.4563 143.809 29.6574C144.041 29.8585 144.221 30.0967 144.354 30.369C144.487 30.6412 144.555 30.9383 144.561 31.2569C144.567 31.5756 144.509 31.8757 144.385 32.1511C144.261 32.4295 144.088 32.6708 143.865 32.8812C143.642 33.0916 143.373 33.2556 143.058 33.3762C142.742 33.4969 142.399 33.5619 142.027 33.5681C141.65 33.5742 141.303 33.5216 140.988 33.4134C140.672 33.302 140.4 33.1473 140.171 32.9462C139.942 32.7451 139.763 32.5069 139.63 32.2346C139.497 31.9623 139.429 31.6653 139.422 31.3467ZM140.685 31.325C140.685 31.4952 140.725 31.6529 140.796 31.7953C140.867 31.9376 140.966 32.0613 141.087 32.1665C141.207 32.2717 141.347 32.3522 141.508 32.4079C141.665 32.4635 141.836 32.4914 142.012 32.4883C142.188 32.4852 142.355 32.4543 142.513 32.3924C142.671 32.3305 142.807 32.247 142.928 32.1356C143.048 32.0242 143.141 31.9005 143.206 31.755C143.271 31.6096 143.305 31.4518 143.302 31.2817C143.299 31.1115 143.262 30.9537 143.191 30.8114C143.12 30.6691 143.021 30.5453 142.897 30.4401C142.773 30.3349 142.634 30.2545 142.473 30.1988C142.312 30.1431 142.145 30.1153 141.969 30.1184C141.792 30.1215 141.625 30.1524 141.467 30.2143C141.31 30.2762 141.173 30.3597 141.056 30.4711C140.938 30.5794 140.846 30.7062 140.781 30.8516C140.712 30.997 140.682 31.1548 140.685 31.3281V31.325Z" fill="white"/>
<path d="M149.167 33.4116L147.666 33.4363L146.487 31.8028L146.515 33.4549L145.309 33.4766L145.234 29.1792L147.112 29.1451C147.372 29.1389 147.598 29.173 147.79 29.2379C147.985 29.306 148.146 29.3988 148.273 29.5164C148.399 29.634 148.495 29.7763 148.563 29.9341C148.628 30.0919 148.665 30.262 148.669 30.4446C148.675 30.7725 148.594 31.0386 148.427 31.2428C148.26 31.4501 148.013 31.5924 147.682 31.6697L149.17 33.4054L149.167 33.4116ZM146.475 31.0819H146.704C146.942 31.0726 147.125 31.0262 147.249 30.9303C147.372 30.8375 147.434 30.7045 147.431 30.5343C147.431 30.3641 147.363 30.2342 147.233 30.1445C147.103 30.0547 146.921 30.0145 146.682 30.0176H146.453L146.472 31.0819H146.475Z" fill="white"/>
<path d="M151.835 31.0498L154.23 31.0096C154.233 31.2385 154.23 31.4458 154.211 31.6315C154.193 31.8171 154.156 31.9903 154.097 32.1512C154.013 32.3771 153.902 32.5782 153.756 32.7514C153.611 32.9278 153.441 33.0732 153.243 33.1939C153.045 33.3145 152.828 33.4043 152.593 33.4692C152.355 33.5342 152.107 33.5682 151.844 33.5744C151.482 33.5806 151.154 33.5311 150.854 33.4259C150.554 33.3207 150.297 33.1691 150.081 32.9742C149.864 32.7793 149.694 32.5411 149.57 32.2657C149.447 31.9873 149.382 31.681 149.375 31.3437C149.369 31.0096 149.422 30.7002 149.536 30.4187C149.648 30.1371 149.812 29.8958 150.022 29.6947C150.232 29.4936 150.492 29.3358 150.792 29.2182C151.093 29.1038 151.433 29.0419 151.804 29.0357C152.287 29.0264 152.714 29.1161 153.082 29.3049C153.45 29.4936 153.744 29.7875 153.967 30.1897L152.828 30.6476C152.717 30.4156 152.575 30.2485 152.404 30.1464C152.231 30.0474 152.036 29.9979 151.82 30.0041C151.64 30.0041 151.476 30.0412 151.328 30.1062C151.182 30.1711 151.055 30.264 150.953 30.3815C150.851 30.4991 150.771 30.6414 150.715 30.8054C150.659 30.9694 150.632 31.1519 150.635 31.353C150.638 31.5355 150.666 31.7026 150.721 31.8604C150.774 32.0151 150.854 32.1481 150.96 32.2595C151.065 32.3709 151.192 32.4575 151.346 32.5194C151.498 32.5782 151.677 32.6091 151.878 32.6029C151.996 32.6029 152.114 32.5875 152.222 32.5596C152.333 32.5318 152.429 32.4916 152.519 32.4359C152.606 32.3802 152.677 32.3059 152.732 32.2193C152.788 32.1296 152.825 32.0244 152.844 31.8975L151.854 31.9161L151.838 31.0498H151.835Z" fill="white"/>
<path d="M157.805 32.69L156.081 32.7209L155.818 33.4727L154.531 33.4944L156.224 29.1661L157.542 29.1444L159.382 33.4109L158.095 33.4325L157.805 32.69ZM157.47 31.8485L156.904 30.4284L156.388 31.867L157.47 31.8485Z" fill="white"/>
<path d="M159.856 33.4988L159.781 29.2014L160.988 29.1797L163.262 31.7693L163.215 29.1426L164.416 29.121L164.49 33.4184L163.29 33.44L161.016 30.8505L161.062 33.4772L159.856 33.4988Z" fill="white"/>
<path d="M166.55 29.1444L166.625 33.4418L165.418 33.4635L165.344 29.1661L166.55 29.1444Z" fill="white"/>
<path d="M169.164 32.5071L171.11 32.4731L171.126 33.4198L167.156 33.4879L169.294 30.097L167.466 30.128L167.45 29.1812L171.29 29.1132L169.164 32.5041V32.5071Z" fill="white"/>
<path d="M174.711 32.69L172.988 32.7209L172.725 33.4727L171.438 33.4944L173.13 29.1661L174.448 29.1444L176.289 33.4109L175.002 33.4325L174.711 32.69ZM174.377 31.8485L173.811 30.4284L173.294 31.867L174.377 31.8485Z" fill="white"/>
<path d="M178.462 30.091L178.521 33.4417L177.314 33.4633L177.256 30.1126L176.265 30.1312L176.25 29.1845L179.44 29.1288L179.455 30.0755L178.465 30.0941L178.462 30.091Z" fill="white"/>
<path d="M181.113 29.1444L181.187 33.4418L179.981 33.4635L179.906 29.1661L181.113 29.1444Z" fill="white"/>
<path d="M181.875 31.3467C181.869 31.028 181.928 30.7279 182.052 30.4525C182.176 30.1741 182.346 29.9327 182.568 29.7224C182.791 29.512 183.057 29.348 183.37 29.2273C183.682 29.1067 184.026 29.0417 184.403 29.0355C184.778 29.0293 185.121 29.0819 185.44 29.1902C185.758 29.3016 186.031 29.4563 186.263 29.6574C186.495 29.8585 186.677 30.0967 186.807 30.369C186.94 30.6412 187.008 30.9383 187.014 31.2569C187.021 31.5756 186.962 31.8757 186.838 32.1511C186.714 32.4295 186.541 32.6708 186.318 32.8812C186.096 33.0916 185.826 33.2556 185.511 33.3762C185.195 33.4969 184.852 33.5619 184.48 33.5681C184.103 33.5742 183.757 33.5216 183.441 33.4134C183.125 33.302 182.853 33.1473 182.624 32.9462C182.395 32.7451 182.213 32.5069 182.083 32.2346C181.95 31.9623 181.882 31.6653 181.875 31.3467ZM183.135 31.325C183.138 31.4952 183.175 31.6529 183.246 31.7953C183.317 31.9376 183.413 32.0613 183.537 32.1665C183.658 32.2717 183.797 32.3522 183.958 32.4079C184.115 32.4635 184.286 32.4914 184.462 32.4883C184.638 32.4852 184.805 32.4543 184.963 32.3924C185.121 32.3305 185.257 32.247 185.378 32.1356C185.495 32.0273 185.591 31.9005 185.656 31.755C185.721 31.6096 185.755 31.4518 185.752 31.2817C185.752 31.1115 185.712 30.9537 185.641 30.8114C185.57 30.6691 185.471 30.5453 185.347 30.4401C185.223 30.3349 185.084 30.2545 184.923 30.1988C184.765 30.1431 184.595 30.1153 184.419 30.1184C184.242 30.1215 184.075 30.1524 183.917 30.2143C183.76 30.2762 183.623 30.3597 183.506 30.4711C183.388 30.5825 183.296 30.7062 183.231 30.8516C183.163 30.997 183.132 31.1548 183.135 31.3281V31.325Z" fill="white"/>
<path d="M187.762 33.4988L187.688 29.2014L188.894 29.1797L191.168 31.7693L191.122 29.1426L192.322 29.121L192.396 33.4184L191.196 33.44L188.922 30.8505L188.968 33.4772L187.762 33.4988Z" fill="white"/>
<path d="M158.224 17.2312C158.224 16.1267 158.428 15.0964 158.837 14.1435C159.245 13.1906 159.811 12.3583 160.532 11.6467C161.256 10.9352 162.119 10.3814 163.125 9.97915C164.13 9.57695 165.238 9.37584 166.447 9.37584C167.657 9.37584 168.749 9.57695 169.761 9.97915C170.773 10.3814 171.645 10.9352 172.375 11.6467C173.106 12.3583 173.675 13.1875 174.08 14.1435C174.489 15.0964 174.693 16.1267 174.693 17.2312C174.693 18.3357 174.489 19.366 174.08 20.3189C173.672 21.2718 173.102 22.1041 172.375 22.8157C171.645 23.5273 170.773 24.0811 169.761 24.4833C168.749 24.8855 167.645 25.0866 166.447 25.0866C165.25 25.0866 164.13 24.8855 163.125 24.4833C162.119 24.0811 161.253 23.5273 160.532 22.8157C159.808 22.1041 159.242 21.2749 158.837 20.3189C158.428 19.366 158.224 18.3357 158.224 17.2312ZM163.094 17.2312C163.094 17.7046 163.183 18.1439 163.363 18.5461C163.542 18.9483 163.784 19.2948 164.09 19.5918C164.396 19.8858 164.752 20.1178 165.157 20.2818C165.563 20.4457 165.993 20.5262 166.447 20.5262C166.902 20.5262 167.332 20.4457 167.738 20.2818C168.143 20.1178 168.502 19.8888 168.814 19.5918C169.127 19.2979 169.371 18.9483 169.551 18.5461C169.73 18.1439 169.82 17.7077 169.82 17.2312C169.82 16.7548 169.73 16.3185 169.551 15.9163C169.371 15.5141 169.127 15.1676 168.814 14.8706C168.502 14.5767 168.143 14.3446 167.738 14.1806C167.332 14.0167 166.902 13.9362 166.447 13.9362C165.993 13.9362 165.563 14.0167 165.157 14.1806C164.752 14.3446 164.396 14.5736 164.09 14.8706C163.784 15.1676 163.542 15.5141 163.363 15.9163C163.183 16.3185 163.094 16.7548 163.094 17.2312ZM41.5656 9.75639H46.7324V12.1541C47.2831 11.2786 47.9607 10.6072 48.7589 10.14C49.5571 9.67285 50.4915 9.44081 51.5558 9.44081H51.9982C52.1591 9.44081 52.3447 9.45937 52.5551 9.49959V14.4374C51.8714 14.094 51.1288 13.9238 50.3275 13.9238C49.1271 13.9238 48.2298 14.2796 47.6296 14.9943C47.0294 15.709 46.7293 16.7486 46.7293 18.1192V24.3997H41.5625V9.75329L41.5656 9.75639ZM64.776 9.75639H69.9706V24.4028H64.776V22.7754C63.6715 24.1646 62.1771 24.8607 60.2929 24.8607C59.2255 24.8607 58.2479 24.6658 57.3537 24.276C56.4596 23.8861 55.6799 23.3385 55.0117 22.6331C54.3465 21.9277 53.8267 21.1017 53.4554 20.1487C53.0842 19.1958 52.8985 18.1594 52.8985 17.0363C52.8985 15.9906 53.078 14.9943 53.44 14.0538C53.8019 13.1132 54.3062 12.2872 54.9529 11.5849C55.5995 10.8826 56.3699 10.3226 57.264 9.91417C58.1581 9.50578 59.1482 9.30159 60.2341 9.30159C62.0626 9.30159 63.5756 9.93893 64.7729 11.2136V9.75639H64.776ZM58.2664 17.0363C58.2664 17.5128 58.3531 17.9552 58.5232 18.3636C58.6934 18.772 58.9285 19.1309 59.2224 19.4341C59.5164 19.7373 59.8691 19.9755 60.2775 20.1487C60.6859 20.3189 61.1283 20.4055 61.6047 20.4055C62.0812 20.4055 62.4927 20.3189 62.9042 20.1487C63.3126 19.9786 63.6653 19.7403 63.9592 19.4341C64.2531 19.1309 64.4913 18.7781 64.6739 18.379C64.8533 17.9799 64.9461 17.5499 64.9461 17.0951C64.9461 16.6403 64.8564 16.2071 64.6739 15.7956C64.4913 15.3873 64.2562 15.0284 63.9592 14.7252C63.6653 14.422 63.3126 14.1837 62.9042 14.0105C62.4958 13.8403 62.0626 13.7537 61.6047 13.7537C61.1468 13.7537 60.6859 13.8403 60.2775 14.0105C59.8691 14.1806 59.5164 14.4189 59.2224 14.7252C58.9285 15.0315 58.6934 15.378 58.5232 15.7678C58.3531 16.1576 58.2664 16.5815 58.2664 17.0394V17.0363ZM82.275 14.4962C81.3809 13.8867 80.4775 13.5835 79.5617 13.5835C79.0667 13.5835 78.6057 13.6701 78.1756 13.8403C77.7487 14.0105 77.3712 14.2549 77.0464 14.5674C76.7215 14.8829 76.4709 15.2511 76.2914 15.6812C76.1089 16.1081 76.0192 16.5908 76.0192 17.1229C76.0192 17.6551 76.1089 18.1068 76.2914 18.5368C76.4709 18.9638 76.7184 19.335 77.034 19.6506C77.3496 19.9662 77.7239 20.2075 78.1633 20.3777C78.5995 20.5478 79.0667 20.6345 79.5617 20.6345C80.5332 20.6345 81.4366 20.3003 82.275 19.6352V24.0316C81.0004 24.5823 79.7906 24.8607 78.649 24.8607C77.5816 24.8607 76.5699 24.6782 75.6077 24.3193C74.6455 23.9573 73.8009 23.4406 73.0676 22.7631C72.3344 22.0886 71.7496 21.278 71.3134 20.3375C70.874 19.3969 70.6575 18.345 70.6575 17.1817C70.6575 16.0184 70.8679 14.9603 71.2855 13.9981C71.7032 13.0359 72.2756 12.2098 72.9996 11.5137C73.7235 10.8207 74.5836 10.2762 75.583 9.88633C76.5823 9.4965 77.6528 9.30159 78.7944 9.30159C80.0505 9.30159 81.2107 9.56766 82.2781 10.0998V14.4962H82.275ZM88.9547 0.706787V15.0376L94.3784 9.75639H101.457L94.1216 16.5227L101.887 24.4028H94.6351L88.9547 18.4347V24.4028H83.788V0.706787H88.9547ZM105.058 17.9521C105.058 20.1797 106.104 21.2935 108.199 21.2935C109.322 21.2935 110.17 20.8356 110.739 19.9229H115.735C114.727 23.2736 112.205 24.9474 108.171 24.9474C106.933 24.9474 105.801 24.7617 104.774 24.3904C103.747 24.0192 102.865 23.4901 102.132 22.8064C101.398 22.1226 100.832 21.3028 100.433 20.3498C100.034 19.3969 99.8329 18.3326 99.8329 17.1539C99.8329 15.9751 100.022 14.8365 100.405 13.8558C100.786 12.875 101.327 12.0428 102.033 11.359C102.735 10.6753 103.589 10.1462 104.588 9.77495C105.588 9.40369 106.714 9.21805 107.97 9.21805C109.226 9.21805 110.321 9.40369 111.311 9.77495C112.301 10.1462 113.14 10.6846 113.823 11.3869C114.507 12.0923 115.033 12.9524 115.392 13.9703C115.754 14.9881 115.933 16.136 115.933 17.4107V17.9521H105.055H105.058ZM111.11 14.9541C110.94 14.2301 110.587 13.6516 110.055 13.2123C109.523 12.776 108.873 12.5563 108.115 12.5563C107.317 12.5563 106.664 12.7667 106.16 13.1844C105.656 13.6021 105.337 14.193 105.204 14.9541H111.113H111.11ZM123.272 14.0693V24.4028H118.105V14.0693H116.391V9.75948H118.105V5.36308H123.272V9.75948H126.211V14.0693H123.272ZM134.327 33.4401H129.16V9.75639H134.327V11.3838C135.431 9.99461 136.935 9.29849 138.838 9.29849C139.883 9.29849 140.861 9.50269 141.764 9.91108C142.668 10.3195 143.454 10.8764 144.119 11.5818C144.784 12.2872 145.304 13.1133 145.675 14.0662C146.046 15.0191 146.232 16.037 146.232 17.1198C146.232 18.2027 146.046 19.2144 145.675 20.1456C145.304 21.0769 144.79 21.8968 144.134 22.6022C143.478 23.3076 142.702 23.8583 141.808 24.2574C140.914 24.6565 139.942 24.8576 138.896 24.8576C137.071 24.8576 135.546 24.2296 134.33 22.9735V33.4401H134.327ZM140.836 17.1229C140.836 16.665 140.756 16.235 140.595 15.8235C140.434 15.4151 140.199 15.0562 139.896 14.753C139.593 14.4498 139.234 14.2054 138.825 14.0259C138.417 13.8465 137.974 13.7537 137.498 13.7537C137.021 13.7537 136.613 13.8403 136.214 14.0105C135.815 14.1806 135.465 14.4189 135.171 14.7252C134.877 15.0315 134.639 15.3873 134.457 15.7956C134.274 16.204 134.184 16.6372 134.184 17.0951C134.184 17.553 134.271 17.9799 134.441 18.379C134.611 18.7781 134.85 19.1278 135.156 19.4217C135.459 19.7156 135.818 19.9538 136.226 20.1364C136.635 20.3189 137.068 20.4086 137.526 20.4086C137.984 20.4086 138.411 20.322 138.81 20.1518C139.209 19.9817 139.555 19.7434 139.852 19.4371C140.146 19.1339 140.385 18.7812 140.567 18.3821C140.747 17.983 140.839 17.5654 140.839 17.126L140.836 17.1229ZM147.03 9.75639H152.197V12.1541C152.748 11.2786 153.425 10.6072 154.224 10.14C155.022 9.67285 155.956 9.44081 157.02 9.44081H157.463C157.624 9.44081 157.809 9.45937 158.02 9.49959V14.4374C157.336 14.094 156.593 13.9238 155.792 13.9238C154.592 13.9238 153.694 14.2796 153.094 14.9943C152.494 15.709 152.194 16.7486 152.194 18.1192V24.3997H147.027V9.75329L147.03 9.75639Z" fill="white"/>
<path d="M25.8681 17.1219C25.8681 18.2078 25.6856 19.2164 25.3143 20.1446C24.943 21.079 24.4294 21.8958 23.7704 22.6012C23.1145 23.3066 22.3411 23.8573 21.4438 24.2564C20.5497 24.6586 19.5782 24.8566 18.5356 24.8566C17.428 24.8566 16.4317 24.6277 15.5469 24.1605V19.8909C15.6892 19.9837 15.8439 20.0642 16.0048 20.1322C16.4163 20.3148 16.8463 20.4014 17.3073 20.4014C17.7683 20.4014 18.1922 20.3179 18.5913 20.1446C18.9935 19.9744 19.3369 19.7362 19.637 19.4299C19.9309 19.1267 20.1692 18.774 20.3517 18.3749C20.5311 17.9758 20.6209 17.555 20.6209 17.1188C20.6209 17.0538 20.6209 16.9919 20.6116 16.927H20.6209V9.61304C20.8869 9.69038 21.1468 9.79249 21.4036 9.90696C22.307 10.3184 23.0929 10.8723 23.7581 11.5808C24.4233 12.2862 24.9461 13.1122 25.3174 14.0651C25.6887 15.0181 25.8712 16.0359 25.8712 17.1219H25.8681Z" fill="white"/>
<path d="M34.6144 16.9279C34.6144 19.2514 34.1843 21.414 33.3273 23.4219C32.4703 25.4237 31.2761 27.1748 29.7384 28.6691C28.2038 30.1635 26.3753 31.3299 24.2437 32.1745C22.112 33.0191 19.7946 33.4399 17.2731 33.4399C16.6822 33.4399 16.1005 33.4182 15.5312 33.3718V29.2384C16.1005 29.3158 16.676 29.3529 17.2638 29.3529C18.9778 29.3529 20.599 29.0404 22.1305 28.4216C23.6651 27.809 25.0171 26.9428 26.1897 25.829C27.3685 24.7152 28.2874 23.4003 28.9649 21.8873C29.6425 20.3744 29.9828 18.7223 29.9828 16.9309C29.9828 15.1396 29.6425 13.4905 28.9649 11.9776C28.2874 10.4647 27.3654 9.14984 26.1897 8.03604C25.0171 6.92224 23.6651 6.05596 22.1305 5.43718C21.6324 5.23608 21.1219 5.06591 20.6052 4.93288V0.691162C21.8737 0.898452 23.0896 1.23259 24.2437 1.69048C26.3753 2.53202 28.2038 3.70151 29.7384 5.19586C31.273 6.6902 32.4703 8.43515 33.3273 10.4431C34.1843 12.4448 34.6144 14.6074 34.6144 16.9309V16.9279Z" fill="#F76900"/>
<path d="M5.64016 11.9749C4.9626 13.4878 4.62227 15.1368 4.62227 16.9282C4.62227 18.7195 4.9626 20.3748 5.64016 21.8846C6.31463 23.3975 7.23043 24.7124 8.38445 25.8262C8.52058 25.953 8.65981 26.083 8.79594 26.2067V9.75347H13.9658V11.3809C15.0704 9.9917 16.574 9.30176 18.4736 9.30176C18.6624 9.30176 18.848 9.30486 19.0336 9.32342V14.2551C18.8975 14.1623 18.7552 14.0911 18.6036 14.0261C18.1952 13.8436 17.7558 13.757 17.2794 13.757C16.8029 13.757 16.3945 13.8405 15.9923 14.0137C15.5932 14.1839 15.2467 14.4221 14.9528 14.7253C14.6558 15.0316 14.4206 15.3905 14.2381 15.7989C14.17 15.9536 14.1143 16.1207 14.0741 16.2847C14.071 16.2878 14.071 16.2939 14.071 16.297C14.003 16.5538 13.9689 16.823 13.9689 17.0983C13.9689 17.1355 13.9689 17.1726 13.972 17.2035H13.9689V33.1803C12.6819 32.9731 11.4629 32.6389 10.3027 32.1779C8.18953 31.3364 6.37032 30.1669 4.85122 28.6726C3.32903 27.1782 2.14407 25.4271 1.28706 23.4253C0.43005 21.4174 0 19.2548 0 16.9313C0 14.6078 0.43005 12.4451 1.28706 10.4434C2.14407 8.43548 3.33212 6.69053 4.85122 5.19619C6.37342 3.70184 8.19263 2.53544 10.3027 1.69081C12.4189 0.846182 14.7486 0.425415 17.2887 0.425415C17.8858 0.425415 18.4674 0.447073 19.0336 0.493481V4.62691C18.4613 4.54956 17.8734 4.51244 17.2794 4.51244C15.5716 4.51244 13.9473 4.81873 12.4189 5.43751C10.8843 6.05628 9.54157 6.92257 8.38754 8.03637C7.23352 9.15016 6.31773 10.4651 5.64326 11.978L5.64016 11.9749Z" fill="white"/>
</svg>
