<?xml version="1.0" encoding="utf-8"?>
<!-- Generator: Adobe Illustrator 27.9.0, SVG Export Plug-In . SVG Version: 6.00 Build 0)  -->
<svg version="1.1" id="Layer_1" xmlns="http://www.w3.org/2000/svg" xmlns:xlink="http://www.w3.org/1999/xlink" x="0px" y="0px"
	 viewBox="0 0 1378.3 149.6" style="enable-background:new 0 0 1378.3 149.6;" xml:space="preserve">
<style type="text/css">
	.st0{fill:#FFFFFF;}
</style>
<path class="st0" d="M158.6,96.5c0,23.8-22,40-64,40c-29.8,0-54.8-8.1-72.9-22.7L39.3,93c13.7,11.6,32.8,18,55.9,18
	c19.9,0,29.8-3.6,29.8-11.2c0-7.4-9.3-9.9-33.1-11.9c-34.4-3-65.7-10.6-65.7-36.4c0-24.8,26.8-38.4,63.5-38.4
	c24.8,0,47.6,6,63.5,17.2l-17,21c-12.9-9.1-28.5-12.7-46.5-12.9c-13.6,0-29.9,2.2-29.9,10.4c0,7.8,13.4,8.8,34.1,10.4
	C131.8,62.4,158.6,69.8,158.6,96.5z"/>
<path class="st0" d="M310.1,16.9v61.2c0,35.2-24,58.4-67.1,58.4s-67.3-23.2-67.3-58.4V16.9h33.7v58.6c0,20.2,11.2,33.2,33.6,33.2
	s33.4-13.1,33.4-33.2V16.9H310.1z"/>
<path class="st0" d="M468.2,57.4c0,27-21,40.5-52.6,40.5H369v34.7h-33.8V16.9h80.4C447.2,16.9,468.2,30.8,468.2,57.4z M434,58.1
	c0-11.7-8.6-15.5-21.2-15.5H369v30.9h43.8C425.4,73.5,434,69.7,434,58.1z"/>
<path class="st0" d="M609.5,106.9v25.8H485.9V16.9h121.7v25.8h-88.5v19h73v24.7h-73v20.5C519.1,106.9,609.5,106.9,609.5,106.9z"/>
<path class="st0" d="M728.1,132.7l-30.6-36.5h-34.1v36.5h-33.6V16.9H711c29.6,0,52.6,13.1,52.6,39.5c0,19.3-12.2,31.6-30.4,36.9
	l34.1,39.4L728.1,132.7L728.1,132.7z M708.5,71.7c12.1,0,20.8-3.3,20.8-14.6s-8.8-14.6-20.8-14.6h-45.3v29.1L708.5,71.7L708.5,71.7z
	"/>
<path class="st0" d="M912.1,96.5c0,23.8-22,40-64,40c-29.8,0-54.7-8.1-72.9-22.7L792.9,93c13.7,11.6,32.8,18,55.9,18
	c19.8,0,29.8-3.6,29.8-11.2c0-7.4-9.3-9.9-33.1-11.9c-34.4-3-65.7-10.6-65.7-36.4c0-24.8,26.8-38.4,63.5-38.4
	c24.8,0,47.6,6,63.5,17.2l-17,21c-12.9-9.1-28.4-12.7-46.5-12.9c-13.6,0-29.9,2.2-29.9,10.4c0,7.8,13.4,8.8,34.1,10.4
	C885.3,62.4,912.1,69.8,912.1,96.5z"/>
<path class="st0" d="M1054.7,106.9v25.8H931.1V16.9h121.7v25.8h-88.5v19h72.9v24.7h-72.9v20.5
	C964.3,106.9,1054.7,106.9,1054.7,106.9z"/>
<path class="st0" d="M1198.6,106.9v25.8h-123.5V16.9h121.7v25.8h-88.5v19h72.9v24.7h-72.9v20.5
	C1108.3,106.9,1198.6,106.9,1198.6,106.9z"/>
<path class="st0" d="M1356.4,74.8c0,36.4-28.3,57.9-72.8,57.9h-64.7V16.9h64.7C1328.1,16.9,1356.4,38.4,1356.4,74.8z M1322,74.8
	c0-20.5-16.2-31.1-41-31.1h-28.3v62.2h28.3C1305.8,105.9,1322,95.3,1322,74.8z"/>
</svg>
