<svg width="71" height="41" viewBox="0 0 71 41" fill="none" xmlns="http://www.w3.org/2000/svg">
<g clip-path="url(#clip0_9666_4525)">
<path d="M54.5946 11.1562C53.6528 11.1562 52.7672 11.5673 52.1044 12.3141L49.4258 15.3241C48.7032 16.1361 48.3319 17.2636 48.408 18.4195C48.4134 18.4826 48.4188 18.5457 48.4243 18.6108C48.5203 19.4981 48.8662 20.2979 49.4258 20.9247C49.8116 21.3582 50.2371 21.6331 50.7533 21.8244C50.7805 21.9994 50.7949 22.1763 50.7949 22.3534C50.7949 23.1512 50.5197 23.9001 50.0198 24.4618L49.855 24.647C48.9604 24.303 48.2142 23.8005 47.5405 23.0434C46.6459 22.038 46.0536 20.7681 45.8309 19.3741L45.8001 19.1806L45.6642 19.3048C45.5719 19.3882 45.4849 19.4778 45.4035 19.5693L42.7249 22.5793C41.3521 24.1219 41.3521 26.6353 42.7249 28.1779C43.4113 28.9492 44.3132 29.3359 45.2169 29.3359C46.1207 29.3359 47.0208 28.9492 47.7071 28.1779L50.3857 25.168C51.7585 23.6253 51.7585 21.114 50.3857 19.5693C50.0198 19.1583 49.5834 18.8489 49.089 18.6495C49.0618 18.4683 49.0473 18.2873 49.0473 18.1103C49.0473 17.2433 49.3516 16.421 49.9094 15.7942C50.8059 16.1381 51.6009 16.6958 52.2728 17.4508C53.1656 18.4541 53.7561 19.722 53.9824 21.1201L54.0132 21.3134L54.1491 21.1894C54.2415 21.106 54.3283 21.0164 54.4117 20.9228L57.0902 17.9128C58.463 16.3701 58.4648 13.8568 57.0902 12.3141C56.4256 11.5673 55.5417 11.1562 54.5982 11.1562H54.5946Z" fill="white"/>
<path d="M53.1582 0.148438H18.1106C8.12441 0.148438 0 9.27798 0 20.4997C0 31.7213 8.12441 40.8509 18.1106 40.8509H53.1582C63.1444 40.8509 71.2688 31.7213 71.2688 20.4997C71.2688 9.27798 63.1444 0.148438 53.1582 0.148438ZM35.8717 32.0551C35.2939 32.1894 34.6437 32.2138 34.2019 31.6949C34.0388 32.1161 33.6585 31.8943 33.3651 31.8394C33.338 31.9248 33.3144 32.0001 33.2891 32.0856C32.3129 32.1589 31.5812 31.0396 31.1158 30.195C30.1921 29.6333 29.1435 29.2914 28.2 28.7032C28.1456 29.672 28.3341 30.8727 27.5136 31.4975C27.4719 33.3596 30.0201 31.7173 30.2537 33.1052C30.0727 33.1276 29.8717 33.0726 29.7267 33.2293C29.0621 33.9559 28.2996 32.6799 27.5335 33.207C26.5048 33.789 26.4016 34.2652 25.1284 34.3853C25.0579 34.2652 25.0868 34.1858 25.1465 34.1126C25.5052 33.6445 25.5305 33.093 26.1426 32.8935C25.5124 32.7816 24.9853 33.1724 24.4547 33.4817C23.7647 33.7992 23.7702 32.7653 22.7089 33.5366C22.5911 33.4288 22.6473 33.3311 22.7143 33.2477C22.9841 32.8773 23.3391 32.8223 23.7394 32.8427C21.7707 31.6094 20.8435 34.3507 19.9343 32.9872C19.6609 33.0686 19.5577 33.3453 19.3856 33.5407C19.2371 33.3576 19.3494 33.1357 19.3566 32.92C19.1791 32.8264 18.9545 32.7816 19.0071 32.4621C18.6593 32.3298 18.4167 32.5618 18.1577 32.7816C17.924 32.5781 18.3152 32.281 18.3877 32.0693C18.596 31.6623 19.0704 31.9859 19.3113 31.6928C19.9959 31.2553 20.9503 31.9655 21.7327 31.8455C22.3358 31.9309 23.0819 31.2349 22.7795 30.5409C22.1348 29.615 22.2488 28.4041 22.2344 27.297C22.1547 26.6518 20.7765 25.8296 20.3781 25.1336C19.8854 24.5068 19.5015 23.7803 19.1175 23.066C17.7321 20.0519 18.1685 16.1791 16.4227 13.3808C15.633 13.8713 14.6043 13.6393 13.9235 12.9819C13.5558 13.3584 13.5394 13.8509 13.5105 14.374C12.6285 13.3829 12.739 11.5105 13.4435 10.4075C13.7315 9.97196 14.0756 9.61378 14.4595 9.29833C14.5464 9.22711 14.5754 9.15791 14.5735 9.04801C15.2709 5.52319 20.0267 6.20292 21.5299 8.70001C22.6202 10.2366 22.9498 12.2696 24.1867 13.6963C25.851 15.7436 27.7472 17.5467 29.283 19.7263C30.7355 21.7187 31.7732 24.055 32.6787 26.4097C33.0482 27.1911 33.0518 28.1497 33.5988 28.8172C33.8686 29.2202 35.1871 30.3171 34.9009 30.7058C35.0657 31.1087 36.2972 31.6643 35.8698 32.0551H35.8717ZM58.9699 20.0316L56.2914 23.0415C55.5777 23.8434 54.6958 24.4417 53.7395 24.7693L53.6906 24.7856L53.6725 24.8385C53.361 25.7625 52.8883 26.5867 52.2653 27.2848L49.5868 30.2947C48.4186 31.6074 46.8648 32.3298 45.2094 32.3298C43.5542 32.3298 42.0002 31.6074 40.8321 30.2947C38.418 27.5819 38.418 23.1697 40.8321 20.4569L43.5107 17.447C44.2279 16.6411 45.0863 16.0611 46.0589 15.7253L46.1078 15.709L46.1259 15.6561C46.4374 14.7321 46.9118 13.9059 47.5367 13.2017L50.2152 10.1918C51.3833 8.8791 52.9372 8.15663 54.5925 8.15663C56.2479 8.15663 57.8017 8.8791 58.9699 10.1918C60.1381 11.5044 60.781 13.2506 60.781 15.1107C60.781 16.9708 60.1381 18.7189 58.9699 20.0296V20.0316Z" fill="white"/>
<path d="M24.9773 28.4122C24.7418 29.442 24.6658 31.1942 23.4741 31.2451C23.3763 31.8394 23.84 32.0632 24.2638 31.8719C24.6821 31.6562 24.8813 32.0429 25.0226 32.4275C25.6691 32.5333 26.6254 32.1853 26.6616 31.3245C25.6963 30.6997 25.3974 29.5112 24.9791 28.4102L24.9773 28.4122Z" fill="white"/>
</g>
<defs>
<clipPath id="clip0_9666_4525">
<rect width="71" height="41" fill="white"/>
</clipPath>
</defs>
</svg>
